# xmcd
#
# Track frame offsets:
#	150
#	10693
#	21083
#	35138
#	47515
#	62163
#	72260
#	84405
#	93950
#	106163
#	120525
#	132480
#	146695
#
# Disc length: 2079 seconds
# Revision: 4
# Processed by: cddbd v1.5.2PL0 Copyright (c) Steve Scherf et al.
# Submitted via: dBpowerAMP V12.0
#
DISCID=aa081d0d
DTITLE=Memphis Slim - Rockin' The Blues
DYEAR=1996
DGENRE=Blues
TTITLE0=Gotta Find My Baby
TTITLE1=The Comeback
TTITLE2=Messin' Around
TTITLE3=Sassy Mae
TTITLE4=Lend Me Your Love
TTITLE5=Guitar Cha Cha
TTITLE6=Stroll On Little Girl
TTITLE7=Rockin' The House
TTITLE8=Wish Me Well
TTITLE9=Blue And Lonesome
TTITLE10=My Gal Keeps Me Crying
TTITLE11=Slim's Blues
TTITLE12=Steppin' Out
EXTD=
EXTT0=
EXTT1=
EXTT2=
EXTT3=
EXTT4=
EXTT5=
EXTT6=
EXTT7=
EXTT8=
EXTT9=
EXTT10=
EXTT11=
EXTT12=
PLAYORDER=
